TITLE ""
FILE "DISC1Track17.mp3" MP3
  TRACK 01 AUDIO
    TITLE "DISC1Track17_01"
    INDEX 01 00:00:00
  TRACK 02 AUDIO
    TITLE "DISC1Track17_02"
    INDEX 01 00:02:58
  TRACK 03 AUDIO
    TITLE "DISC1Track17_03"
    INDEX 01 00:03:09
  TRACK 04 AUDIO
    TITLE "DISC1Track17_04"
    INDEX 01 00:05:39
  TRACK 05 AUDIO
    TITLE "DISC1Track17_05"
    INDEX 01 00:07:69
  TRACK 06 AUDIO
    TITLE "DISC1Track17_06"
    INDEX 01 00:10:07
  TRACK 07 AUDIO
    TITLE "DISC1Track17_07"
    INDEX 01 00:10:38
  TRACK 08 AUDIO
    TITLE "DISC1Track17_08"
    INDEX 01 00:13:23
  TRACK 09 AUDIO
    TITLE "DISC1Track17_09"
    INDEX 01 00:16:07
  TRACK 10 AUDIO
    TITLE "DISC1Track17_10"
    INDEX 01 00:18:45
  TRACK 11 AUDIO
    TITLE "DISC1Track17_11"
    INDEX 01 00:19:04
  TRACK 12 AUDIO
    TITLE "DISC1Track17_12"
    INDEX 01 00:20:37
  TRACK 13 AUDIO
    TITLE "DISC1Track17_13"
    INDEX 01 00:22:37
  TRACK 14 AUDIO
    TITLE "DISC1Track17_14"
    INDEX 01 00:24:32
  TRACK 15 AUDIO
    TITLE "DISC1Track17_15"
    INDEX 01 00:24:62
  TRACK 16 AUDIO
    TITLE "DISC1Track17_16"
    INDEX 01 00:26:57
  TRACK 17 AUDIO
    TITLE "DISC1Track17_17"
    INDEX 01 00:28:50
  TRACK 18 AUDIO
    TITLE "DISC1Track17_18"
    INDEX 01 00:30:23
  TRACK 19 AUDIO
    TITLE "DISC1Track17_19"
    INDEX 01 00:30:54
  TRACK 20 AUDIO
    TITLE "DISC1Track17_20"
    INDEX 01 00:32:32
  TRACK 21 AUDIO
    TITLE "DISC1Track17_21"
    INDEX 01 00:34:43
  TRACK 22 AUDIO
    TITLE "DISC1Track17_22"
    INDEX 01 00:36:45
  TRACK 23 AUDIO
    TITLE "DISC1Track17_23"
    INDEX 01 00:37:00
  TRACK 24 AUDIO
    TITLE "DISC1Track17_24"
    INDEX 01 00:40:02
  TRACK 25 AUDIO
    TITLE "DISC1Track17_25"
    INDEX 01 00:43:02
  TRACK 26 AUDIO
    TITLE "DISC1Track17_26"
    INDEX 01 00:45:64
  TRACK 27 AUDIO
    TITLE "DISC1Track17_27"
    INDEX 01 00:46:20
  TRACK 28 AUDIO
    TITLE "DISC1Track17_28"
    INDEX 01 00:49:32
  TRACK 29 AUDIO
    TITLE "DISC1Track17_29"
    INDEX 01 00:52:29
  TRACK 30 AUDIO
    TITLE "DISC1Track17_30"
    INDEX 01 00:55:11
  TRACK 31 AUDIO
    TITLE "DISC1Track17_31"
    INDEX 01 00:55:43
  TRACK 32 AUDIO
    TITLE "DISC1Track17_32"
    INDEX 01 00:58:55
  TRACK 33 AUDIO
    TITLE "DISC1Track17_33"
    INDEX 01 01:01:06
  TRACK 34 AUDIO
    TITLE "DISC1Track17_34"
    INDEX 01 01:03:17
  TRACK 35 AUDIO
    TITLE "DISC1Track17_35"
    INDEX 01 01:03:42
  TRACK 36 AUDIO
    TITLE "DISC1Track17_36"
    INDEX 01 01:07:46
  TRACK 37 AUDIO
    TITLE "DISC1Track17_37"
    INDEX 01 01:11:10
  TRACK 38 AUDIO
    TITLE "DISC1Track17_38"
    INDEX 01 01:14:36
  TRACK 39 AUDIO
    TITLE "DISC1Track17_39"
    INDEX 01 01:14:67
  TRACK 40 AUDIO
    TITLE "DISC1Track17_40"
    INDEX 01 01:18:30
  TRACK 41 AUDIO
    TITLE "DISC1Track17_41"
    INDEX 01 01:21:40
  TRACK 42 AUDIO
    TITLE "DISC1Track17_42"
    INDEX 01 01:24:33
  TRACK 43 AUDIO
    TITLE "DISC1Track17_43"
    INDEX 01 01:24:64
  TRACK 44 AUDIO
    TITLE "DISC1Track17_44"
    INDEX 01 01:27:35
  TRACK 45 AUDIO
    TITLE "DISC1Track17_45"
    INDEX 01 01:29:73
  TRACK 46 AUDIO
    TITLE "DISC1Track17_46"
    INDEX 01 01:32:16
  TRACK 47 AUDIO
    TITLE "DISC1Track17_47"
    INDEX 01 01:32:48
  TRACK 48 AUDIO
    TITLE "DISC1Track17_48"
    INDEX 01 01:36:59
  TRACK 49 AUDIO
    TITLE "DISC1Track17_49"
    INDEX 01 01:38:72
  TRACK 50 AUDIO
    TITLE "DISC1Track17_50"
    INDEX 01 01:40:69
